<?xml version="1.0" encoding="UTF-8" ?>
<!DOCTYPE svg PUBLIC "-//W3C//DTD SVG 1.1//EN" "http://www.w3.org/Graphics/SVG/1.1/DTD/svg11.dtd">
<svg width="218pt" height="246pt" viewBox="0 0 218 246" version="1.1" xmlns="http://www.w3.org/2000/svg">
<path fill="#ffffff" d=" M 0.00 0.00 L 54.60 0.00 C 47.23 1.31 38.87 2.37 33.48 8.14 C 45.35 76.08 57.48 143.97 69.45 211.89 C 71.04 221.32 77.08 230.21 86.06 233.94 C 96.08 238.06 108.16 238.19 117.62 232.52 C 121.96 229.99 125.24 226.04 127.53 221.62 C 148.79 177.34 170.20 133.13 191.45 88.85 C 193.01 80.64 186.16 72.52 177.93 71.87 C 171.49 70.60 164.72 72.06 159.02 75.18 C 154.23 77.65 148.15 78.78 143.31 75.82 C 135.66 71.45 132.34 62.70 128.83 55.10 C 120.16 37.13 108.20 19.93 91.06 9.14 C 82.99 4.10 73.78 1.14 64.36 0.00 L 218.00 0.00 L 218.00 246.00 L 0.00 246.00 L 0.00 0.00 Z" />
<path fill="#2a2829" d=" M 54.60 0.00 L 64.36 0.00 C 73.78 1.14 82.99 4.10 91.06 9.14 C 108.20 19.93 120.16 37.13 128.83 55.10 C 132.34 62.70 135.66 71.45 143.31 75.82 C 148.15 78.78 154.23 77.65 159.02 75.18 C 164.72 72.06 171.49 70.60 177.93 71.87 C 186.16 72.52 193.01 80.64 191.45 88.85 C 170.20 133.13 148.79 177.34 127.53 221.62 C 125.24 226.04 121.96 229.99 117.62 232.52 C 108.16 238.19 96.08 238.06 86.06 233.94 C 77.08 230.21 71.04 221.32 69.45 211.89 C 57.48 143.97 45.35 76.08 33.48 8.14 C 38.87 2.37 47.23 1.31 54.60 0.00 Z" />
</svg>
